<svg id="图层_1" data-name="图层 1" xmlns="http://www.w3.org/2000/svg" viewBox="0 0 207.03 140.37"><title>logo</title><path d="M106.64,276A936.15,936.15,0,0,1,178,166.86c1.17-1.54-1.44-3-2.59-1.52a935.43,935.43,0,0,0-71.34,109.18c-.94,1.69,1.65,3.2,2.59,1.51Z" transform="translate(-103.85 -164.71)"/><path d="M175,168.29l3.56,3.08a13.36,13.36,0,0,1,.31,3.15c0,1.51-.06,3.06-.14,4.57a85.91,85.91,0,0,1-1.22,10.1,96.59,96.59,0,0,1-5,17.38c-4.43,11.57-10,22.75-15.18,34-.8,1.74,1.79,3.27,2.59,1.51,6.66-14.54,14.52-29.11,18.76-44.6a83,83,0,0,0,3.17-23c-.09-4.65-1.74-8.88-6.87-9.23-1.93-.14-1.92,2.86,0,3Z" transform="translate(-103.85 -164.71)"/><path d="M233.64,207.45c-28.3-3.56-59.4,10.89-69,39.07a45.28,45.28,0,0,0,3.11,36c6.66,12.32,18.11,19,31.81,20.78,20,2.56,40.81,1,60.59-2.37,1.89-.32,1.09-3.21-.8-2.89-20.06,3.39-42.46,5.5-62.65,1.82-16.44-3-28.06-15.6-30.88-32-2.8-16.22,4.84-32,16.86-42.68,13.87-12.28,32.79-17,51-14.75,1.91.24,1.89-2.76,0-3Z" transform="translate(-103.85 -164.71)"/><path d="M158.71,242.8c2.06,0,3.56.22,4.28,2.39a7.62,7.62,0,0,1,.29,2.68c-.12,2.4-.5,4.75-.51,7.16a1.5,1.5,0,0,0,3,0c0-3.7,1-7.42,0-11-.94-3.37-3.84-4.23-7.07-4.19a1.5,1.5,0,0,0,0,3Z" transform="translate(-103.85 -164.71)"/><path d="M230.67,259.34c7-4,12.49-9.71,18.1-15.39q9.91-10,20-19.92,20.49-20.1,41.65-39.51c1.42-1.31-.71-3.43-2.13-2.13Q287.87,201.16,268,220.55q-9.74,9.52-19.32,19.21c-6.1,6.16-11.95,12.63-19.54,17a1.5,1.5,0,0,0,1.51,2.59Z" transform="translate(-103.85 -164.71)"/><path d="M307.33,183.83,288.22,254a1.5,1.5,0,0,0,2.89.8l19.11-70.15a1.5,1.5,0,0,0-2.89-.8Z" transform="translate(-103.85 -164.71)"/><path d="M198.63,213.63c2.82,7.26,8.09,13.42,12.56,19.71,5,7,9.95,13.89,14.86,20.88,10,14.23,9.81,33.17,3.93,49-.67,1.81,2.23,2.6,2.9.8,5.16-14,6.38-31.7-.49-45.38-4-7.87-10.19-15-15.3-22.2-5.31-7.47-12.23-15-15.56-23.65-.69-1.78-3.59-1-2.9.8Z" transform="translate(-103.85 -164.71)"/></svg>